# Blender v2.79 (sub 0) OBJ File: 'SR1.blend'
# www.blender.org
o Hall2
v -20.000000 3.200001 -12.500000
v -20.000000 6.000000 -12.500000
v 20.000000 3.200001 -12.500000
v -11.000000 8.000001 -12.500000
v 20.000000 8.000001 -12.500000
v -20.000000 3.200000 12.500000
v -20.000000 6.000000 12.500000
v 7.900000 3.200000 12.300000
v 7.900000 3.200000 11.300000
v 7.900000 8.000000 12.300000
v 7.900000 8.000000 11.300000
v 7.900000 3.200001 -11.300000
v 7.900000 3.200001 -12.300000
v 7.900000 8.000001 -11.300000
v 7.900000 8.000001 -12.300000
v 5.500000 3.200001 -11.300000
v 5.500000 8.000001 -11.300000
v 5.500000 3.200001 -12.300000
v 5.500000 8.000001 -12.300000
v -5.500000 3.200001 -12.300000
v -5.500000 8.000001 -12.300000
v -5.500000 3.200001 -11.300000
v -5.500000 8.000001 -11.300000
v -7.900000 3.200001 -11.300000
v -7.900000 8.000001 -11.300000
v 12.500000 3.200000 12.300000
v 12.500000 5.000000 12.300000
v 12.900000 5.000000 12.300000
v 18.799999 8.000000 12.300000
v 18.799999 3.400000 12.300000
v 12.900000 3.400000 12.300000
v 5.500000 3.200000 11.300000
v 5.500000 8.000000 11.300000
v -7.900000 3.200001 -12.300000
v -7.900000 8.000001 -12.300000
v -11.000000 8.000001 -12.300000
v 18.799999 8.000001 -12.300000
v 19.799999 8.000001 -11.300000
v 19.799999 8.000000 -1.200000
v 18.799999 8.000001 -11.300000
v 18.799999 8.000000 -1.200000
v 18.799999 8.000000 1.200000
v 19.799999 8.000000 1.200000
v 20.000000 8.000000 12.500000
v 19.799999 8.000000 11.300000
v 18.799999 8.000000 11.300000
v 5.500000 8.000000 12.300000
v -11.000000 8.000000 12.500000
v -5.500000 8.000000 12.300000
v -7.900000 8.000000 12.300000
v -5.500000 8.000000 11.300000
v -7.900000 8.000000 11.300000
v -11.000000 8.000000 12.300000
v 18.799999 3.400001 -12.300000
v 18.799999 3.400001 -11.300000
v 19.799999 3.400001 -11.300000
v 19.799999 3.400001 -9.300000
v 19.799999 3.400000 -3.200000
v 19.799999 5.900001 -9.300000
v 19.799999 5.900000 -3.200000
v 19.799999 5.900000 -1.700000
v 19.799999 3.400000 -1.200000
v 19.799999 3.400000 -1.700000
v 19.799999 5.900001 -10.800000
v 19.799999 3.400001 -10.800000
v 18.799999 3.400000 -1.200000
v 18.799999 3.400000 1.200000
v 19.799999 3.400000 1.200000
v 19.799999 3.400000 11.300000
v 18.799999 3.400000 11.300000
v 20.000000 3.200000 12.500000
v 12.500000 3.200001 -12.300000
v 5.500000 3.200000 12.300000
v -19.799999 3.200000 1.200000
v -19.799999 3.200000 11.300000
v -18.799999 3.200000 12.300000
v -18.799999 3.200000 11.300000
v -18.799999 3.200001 -12.300000
v -19.799999 3.200001 -11.300000
v -19.799999 3.200000 -1.200000
v -18.799999 3.200001 -11.300000
v -18.799999 3.200000 -1.200000
v -18.799999 3.200000 1.200000
v -7.900000 3.200000 12.300000
v -5.500000 3.200000 12.300000
v -7.900000 3.200000 11.300000
v -5.500000 3.200000 11.300000
v 12.500000 5.000000 -12.300000
v 12.900000 3.400001 -12.300000
v 20.000000 3.400000 -1.700000
v 20.000000 3.400000 -3.200000
v 20.000000 3.400001 -9.300000
v 20.000000 3.400001 -10.800000
v 12.900000 5.000000 -12.300000
v 20.000000 5.900000 -3.200000
v 20.000000 5.900000 -1.700000
v 20.000000 5.900001 -10.800000
v 20.000000 5.900001 -9.300000
v -18.799999 6.266667 -12.300000
v -19.799999 6.044445 -11.300000
v -19.799999 6.044445 -1.200000
v -19.799999 6.044445 1.200000
v -18.799999 6.266667 1.200000
v -19.799999 6.044444 11.300000
v -18.799999 6.266666 12.300000
v -18.799999 6.266666 11.300000
v -18.799999 6.266667 -1.200000
v -18.799999 6.266667 -11.300000
vt 0.848303 0.000000
vt 0.891647 0.000000
vt 0.848303 0.619195
vt 0.922607 0.139319
vt 0.922607 0.619195
vt 0.922607 0.773994
vt 0.922607 0.386997
vt 0.965951 0.773994
vt 0.965951 0.386997
vt 0.645390 0.787926
vt 0.660870 0.787926
vt 0.645390 0.862229
vt 0.660870 0.862229
vt 0.832526 0.767802
vt 0.848006 0.767802
vt 0.832526 0.842105
vt 0.848006 0.842105
vt 0.222912 0.776314
vt 0.260064 0.776314
vt 0.222912 0.850617
vt 0.260064 0.850617
vt 0.848006 0.767802
vt 0.832526 0.767802
vt 0.848006 0.693498
vt 0.832526 0.693498
vt 0.496783 0.789474
vt 0.496783 0.619195
vt 0.571087 0.789474
vt 0.571087 0.619195
vt 0.371519 0.776314
vt 0.386999 0.776314
vt 0.371519 0.850617
vt 0.386999 0.850617
vt 0.260064 0.776314
vt 0.297216 0.776314
vt 0.260064 0.850617
vt 0.297216 0.850617
vt 0.074304 0.691174
vt 0.074304 0.619967
vt 0.102168 0.691174
vt 0.148608 0.619967
vt 0.102168 0.697366
vt 0.148608 0.788697
vt 0.077400 0.788697
vt 0.077400 0.697366
vt 0.818766 0.849845
vt 0.781614 0.849845
vt 0.818766 0.775542
vt 0.781614 0.775542
vt 0.848006 0.693498
vt 0.832526 0.693498
vt 0.848006 0.619195
vt 0.832526 0.619195
vt 0.383904 0.479331
vt 0.383904 0.431398
vt 0.387000 0.479331
vt 0.383904 0.394288
vt 0.383904 0.224203
vt 0.368424 0.431398
vt 0.368424 0.394288
vt 0.368424 0.224203
vt 0.383904 0.187094
vt 0.386999 0.000000
vt 0.368424 0.187094
vt 0.383903 0.018555
vt 0.368423 0.003092
vt 0.212076 0.003092
vt 0.368423 0.018555
vt 0.212076 0.018555
vt 0.174924 0.018555
vt 0.174924 0.003092
vt 0.000000 0.000000
vt 0.018576 0.003093
vt 0.003096 0.018555
vt 0.018576 0.018555
vt 0.003096 0.187094
vt 0.003096 0.224203
vt 0.000000 0.479331
vt 0.003096 0.394288
vt 0.003096 0.431398
vt 0.018576 0.394288
vt 0.018576 0.431398
vt 0.018576 0.187094
vt 0.018576 0.224203
vt 0.003096 0.479331
vt 0.707310 0.859133
vt 0.691830 0.859133
vt 0.707310 0.787926
vt 0.691830 0.787926
vt 0.015480 0.788697
vt 0.030960 0.788697
vt 0.015480 0.859905
vt 0.030960 0.859905
vt 0.294120 0.745354
vt 0.294120 0.650927
vt 0.332820 0.745354
vt 0.332820 0.650927
vt 0.365328 0.776314
vt 0.365328 0.619967
vt 0.332820 0.627707
vt 0.294120 0.619967
vt 0.294120 0.627707
vt 0.332820 0.768574
vt 0.294120 0.776314
vt 0.294120 0.768574
vt 0.030960 0.788697
vt 0.046440 0.788697
vt 0.030960 0.859905
vt 0.046440 0.859905
vt 0.334368 0.847521
vt 0.297216 0.847521
vt 0.334368 0.776314
vt 0.297216 0.776314
vt 0.000000 0.788697
vt 0.015480 0.788697
vt 0.000000 0.859905
vt 0.015480 0.859905
vt 0.222912 0.776314
vt 0.222912 0.619967
vt 0.294120 0.776314
vt 0.294120 0.619967
vt 0.046440 0.788697
vt 0.061920 0.788697
vt 0.046440 0.859905
vt 0.061920 0.859905
vt 0.691830 0.859133
vt 0.676350 0.859133
vt 0.691830 0.787926
vt 0.676350 0.787926
vt 0.773999 0.000000
vt 0.390096 0.116099
vt 0.387000 0.000000
vt 0.390096 0.187307
vt 0.390096 0.224458
vt 0.405576 0.187307
vt 0.405576 0.224458
vt 0.773999 0.619195
vt 0.770903 0.224458
vt 0.770903 0.187306
vt 0.770903 0.116099
vt 0.387000 0.619195
vt 0.599075 0.616099
vt 0.755423 0.616099
vt 0.770903 0.600619
vt 0.755423 0.600619
vt 0.390096 0.394737
vt 0.390096 0.431889
vt 0.405576 0.394737
vt 0.405576 0.431889
vt 0.390096 0.600619
vt 0.405576 0.616099
vt 0.561924 0.616099
vt 0.405576 0.600619
vt 0.561924 0.600619
vt 0.599075 0.600619
vt 0.770903 0.431888
vt 0.770903 0.394737
vt 0.755423 0.431888
vt 0.755423 0.394737
vt 0.755423 0.224458
vt 0.755423 0.187306
vt 0.993815 0.386997
vt 0.993815 0.767802
vt 0.965951 0.386997
vt 0.965951 0.767802
vt 0.496783 1.000000
vt 0.405555 0.791022
vt 0.496783 0.619195
vt 0.405555 0.634675
vt 0.405555 0.619195
vt 0.405555 1.000000
vt 0.405555 0.984520
vt 0.405555 0.828173
vt 0.390092 0.984520
vt 0.390092 0.828173
vt 0.390092 0.791022
vt 0.390092 0.783282
vt 0.390092 0.760062
vt 0.390092 0.665635
vt 0.387000 0.783282
vt 0.387000 0.760062
vt 0.387000 0.665635
vt 0.387000 0.642415
vt 0.390092 0.642415
vt 0.390092 0.634675
vt 0.148608 0.717490
vt 0.176472 0.717490
vt 0.148608 0.788697
vt 0.222912 0.788697
vt 0.176472 0.711298
vt 0.222912 0.619967
vt 0.151704 0.619967
vt 0.151704 0.711298
vt 0.744462 0.619195
vt 0.744462 1.000000
vt 0.719694 0.619195
vt 0.719694 1.000000
vt 1.000000 0.767802
vt 1.000000 0.386997
vt 0.383904 0.720586
vt 0.383904 0.697366
vt 0.387000 0.720586
vt 0.387000 0.697366
vt 0.387000 0.619967
vt 0.387000 0.658666
vt 0.383904 0.619967
vt 0.383904 0.658666
vt 0.383904 0.658666
vt 0.383904 0.697366
vt 0.380808 0.658666
vt 0.380808 0.697366
vt 0.387000 0.658666
vt 0.387000 0.697366
vt 0.383904 0.658666
vt 0.383904 0.697366
vt 0.380808 0.720586
vt 0.380808 0.697366
vt 0.383904 0.720586
vt 0.383904 0.697366
vt 0.383904 0.619967
vt 0.383904 0.658666
vt 0.380808 0.619967
vt 0.380808 0.658666
vt 0.383904 0.601215
vt 0.387000 0.619967
vt 0.368424 0.616842
vt 0.212076 0.616842
vt 0.174924 0.616842
vt 0.174924 0.601215
vt 0.000000 0.619967
vt 0.018576 0.616842
vt 0.003096 0.601215
vt 0.018576 0.601215
vt 0.212076 0.601215
vt 0.368424 0.601215
vt 0.571087 0.789474
vt 0.571087 0.619195
vt 0.645390 0.789474
vt 0.645390 0.619195
vt 0.380808 0.768574
vt 0.365328 0.768574
vt 0.380808 0.694270
vt 0.365328 0.694270
vt 0.719694 0.619195
vt 0.719694 0.787926
vt 0.672222 0.619195
vt 0.645390 0.739938
vt 0.645390 0.787926
vt 0.148608 0.836169
vt 0.133128 0.836169
vt 0.148608 0.788697
vt 0.133128 0.788697
vt 0.117648 0.788697
vt 0.133128 0.788697
vt 0.117648 0.832729
vt 0.133128 0.836169
vt 0.788494 0.619195
vt 0.788494 0.775542
vt 0.744462 0.619195
vt 0.744462 0.775542
vt 0.086688 0.788697
vt 0.086688 0.832729
vt 0.071208 0.788697
vt 0.071208 0.836169
vt 0.334368 0.776314
vt 0.371519 0.776314
vt 0.334368 0.823785
vt 0.371519 0.823785
vt 0.102168 0.788697
vt 0.117648 0.788697
vt 0.102168 0.832729
vt 0.117648 0.836169
vt 0.788494 0.775542
vt 0.788494 0.619195
vt 0.832526 0.775542
vt 0.832526 0.619195
vt 0.102168 0.788697
vt 0.102168 0.832729
vt 0.086688 0.788697
vt 0.086688 0.836169
vt 0.148608 0.788697
vt 0.164088 0.788697
vt 0.148608 0.836169
vt 0.164088 0.836169
vt 0.074304 0.788697
vt 0.026832 0.788697
vt 0.074304 0.619967
vt 0.000000 0.667954
vt 0.000000 0.619967
vt 0.380808 0.694270
vt 0.365328 0.694270
vt 0.380808 0.619967
vt 0.365328 0.619967
vt 0.781614 0.849845
vt 0.744462 0.849845
vt 0.781614 0.775542
vt 0.744462 0.775542
vt 0.660870 0.787926
vt 0.676350 0.787926
vt 0.660870 0.862229
vt 0.676350 0.862229
vt 0.996911 0.386997
vt 0.993815 0.219814
vt 0.996911 0.000000
vt 0.955115 0.219814
vt 0.922607 0.000000
vt 0.922607 0.386997
vt 0.955115 0.243034
vt 0.955115 0.337461
vt 0.993815 0.337461
vt 0.993815 0.243034
vt 0.955115 0.360681
vt 0.993815 0.360681
vt 0.817343 0.619195
vt 0.848303 0.479876
vt 0.848303 0.000000
vn 0.0000 0.0000 -1.0000
vn -1.0000 0.0000 0.0000
vn 1.0000 0.0000 0.0000
vn 0.0000 0.0000 1.0000
vn 0.0000 1.0000 0.0000
vn -0.0000 -1.0000 -0.0000
vn -0.2169 0.9762 0.0000
s off
f 1/1/1 2/2/1 3/3/1
f 3/3/1 2/2/1 4/4/1
f 3/3/1 4/4/1 5/5/1
f 1/6/2 6/7/2 2/8/2
f 2/8/2 6/7/2 7/9/2
f 8/10/3 9/11/3 10/12/3
f 10/12/3 9/11/3 11/13/3
f 12/14/3 13/15/3 14/16/3
f 14/16/3 13/15/3 15/17/3
f 16/18/4 12/19/4 17/20/4
f 17/20/4 12/19/4 14/21/4
f 18/22/2 16/23/2 19/24/2
f 19/24/2 16/23/2 17/25/2
f 20/26/4 18/27/4 21/28/4
f 21/28/4 18/27/4 19/29/4
f 22/30/3 20/31/3 23/32/3
f 23/32/3 20/31/3 21/33/3
f 24/34/4 22/35/4 25/36/4
f 25/36/4 22/35/4 23/37/4
f 26/38/1 8/39/1 27/40/1
f 27/40/1 8/39/1 10/41/1
f 27/40/1 10/41/1 28/42/1
f 28/42/1 10/41/1 29/43/1
f 28/42/1 29/43/1 30/44/1
f 30/44/1 31/45/1 28/42/1
f 9/46/1 32/47/1 11/48/1
f 11/48/1 32/47/1 33/49/1
f 34/50/2 24/51/2 35/52/2
f 35/52/2 24/51/2 25/53/2
f 36/54/5 35/55/5 4/56/5
f 4/56/5 35/55/5 21/57/5
f 4/56/5 21/57/5 19/58/5
f 35/55/5 25/59/5 21/57/5
f 21/57/5 25/59/5 23/60/5
f 17/61/5 15/62/5 19/58/5
f 19/58/5 15/62/5 5/63/5
f 19/58/5 5/63/5 4/56/5
f 17/61/5 14/64/5 15/62/5
f 15/62/5 37/65/5 5/63/5
f 5/63/5 37/65/5 38/66/5
f 5/63/5 38/66/5 39/67/5
f 37/65/5 40/68/5 38/66/5
f 41/69/5 42/70/5 39/67/5
f 39/67/5 42/70/5 43/71/5
f 39/67/5 43/71/5 5/63/5
f 5/63/5 43/71/5 44/72/5
f 44/72/5 43/71/5 45/73/5
f 44/72/5 45/73/5 29/74/5
f 29/74/5 45/73/5 46/75/5
f 29/74/5 10/76/5 44/72/5
f 44/72/5 10/76/5 47/77/5
f 44/72/5 47/77/5 48/78/5
f 48/78/5 47/77/5 49/79/5
f 48/78/5 49/79/5 50/80/5
f 50/80/5 49/79/5 51/81/5
f 50/80/5 51/81/5 52/82/5
f 10/76/5 11/83/5 47/77/5
f 47/77/5 11/83/5 33/84/5
f 50/80/5 53/85/5 48/78/5
f 54/86/2 55/87/2 37/88/2
f 37/88/2 55/87/2 40/89/2
f 55/90/4 56/91/4 40/92/4
f 40/92/4 56/91/4 38/93/4
f 57/94/2 58/95/2 59/96/2
f 59/96/2 58/95/2 60/97/2
f 59/96/2 60/97/2 38/98/2
f 38/98/2 60/97/2 39/99/2
f 39/99/2 60/97/2 61/100/2
f 39/99/2 61/100/2 62/101/2
f 62/101/2 61/100/2 63/102/2
f 59/96/2 38/98/2 64/103/2
f 64/103/2 38/98/2 56/104/2
f 64/103/2 56/104/2 65/105/2
f 62/106/1 66/107/1 39/108/1
f 39/108/1 66/107/1 41/109/1
f 66/110/2 67/111/2 41/112/2
f 41/112/2 67/111/2 42/113/2
f 67/114/4 68/115/4 42/116/4
f 42/116/4 68/115/4 43/117/4
f 68/118/2 69/119/2 43/120/2
f 43/120/2 69/119/2 45/121/2
f 69/122/1 70/123/1 45/124/1
f 45/124/1 70/123/1 46/125/1
f 70/126/2 30/127/2 46/128/2
f 46/128/2 30/127/2 29/129/2
f 71/130/6 72/131/6 3/132/6
f 3/132/6 72/131/6 13/133/6
f 3/132/6 13/133/6 18/134/6
f 18/134/6 13/133/6 12/135/6
f 18/134/6 12/135/6 16/136/6
f 6/137/6 73/138/6 71/130/6
f 71/130/6 73/138/6 8/139/6
f 71/130/6 8/139/6 26/140/6
f 1/141/6 74/142/6 6/137/6
f 6/137/6 74/142/6 75/143/6
f 6/137/6 75/143/6 76/144/6
f 76/144/6 75/143/6 77/145/6
f 3/132/6 18/134/6 1/141/6
f 1/141/6 18/134/6 20/146/6
f 1/141/6 20/146/6 34/147/6
f 34/147/6 20/146/6 22/148/6
f 34/147/6 22/148/6 24/149/6
f 34/147/6 78/150/6 1/141/6
f 1/141/6 78/150/6 79/151/6
f 1/141/6 79/151/6 80/152/6
f 78/150/6 81/153/6 79/151/6
f 82/154/6 83/155/6 80/152/6
f 80/152/6 83/155/6 74/142/6
f 80/152/6 74/142/6 1/141/6
f 76/144/6 84/156/6 6/137/6
f 6/137/6 84/156/6 85/157/6
f 6/137/6 85/157/6 73/138/6
f 84/156/6 86/158/6 85/157/6
f 85/157/6 86/158/6 87/159/6
f 73/138/6 32/160/6 8/139/6
f 8/139/6 32/160/6 9/161/6
f 26/140/6 72/131/6 71/130/6
f 27/162/2 88/163/2 26/164/2
f 26/164/2 88/163/2 72/165/2
f 31/166/5 66/167/5 89/168/5
f 89/168/5 66/167/5 55/169/5
f 89/168/5 55/169/5 54/170/5
f 30/171/5 70/172/5 31/166/5
f 31/166/5 70/172/5 67/173/5
f 31/166/5 67/173/5 66/167/5
f 69/174/5 68/175/5 70/172/5
f 70/172/5 68/175/5 67/173/5
f 62/176/5 63/177/5 66/167/5
f 66/167/5 63/177/5 58/178/5
f 66/167/5 58/178/5 57/179/5
f 90/180/5 91/181/5 63/177/5
f 63/177/5 91/181/5 58/178/5
f 92/182/5 93/183/5 57/179/5
f 57/179/5 93/183/5 65/184/5
f 57/179/5 65/184/5 55/169/5
f 55/169/5 65/184/5 56/185/5
f 57/179/5 55/169/5 66/167/5
f 72/186/4 88/187/4 13/188/4
f 13/188/4 88/187/4 15/189/4
f 15/189/4 88/187/4 94/190/4
f 15/189/4 94/190/4 37/191/4
f 37/191/4 94/190/4 54/192/4
f 54/192/4 94/190/4 89/193/4
f 94/194/3 28/195/3 89/196/3
f 89/196/3 28/195/3 31/197/3
f 88/163/5 27/162/5 94/198/5
f 94/198/5 27/162/5 28/199/5
f 95/200/6 96/201/6 60/202/6
f 60/202/6 96/201/6 61/203/6
f 96/204/1 90/205/1 61/206/1
f 61/206/1 90/205/1 63/207/1
f 91/208/4 95/209/4 58/210/4
f 58/210/4 95/209/4 60/211/4
f 93/212/4 97/213/4 65/214/4
f 65/214/4 97/213/4 64/215/4
f 97/216/6 98/217/6 64/218/6
f 64/218/6 98/217/6 59/219/6
f 98/220/1 92/221/1 59/222/1
f 59/222/1 92/221/1 57/223/1
f 36/54/7 4/56/7 99/224/7
f 99/224/7 4/56/7 2/225/7
f 99/224/7 2/225/7 100/226/7
f 100/226/7 2/225/7 101/227/7
f 101/227/7 2/225/7 102/228/7
f 101/227/7 102/228/7 103/229/7
f 2/225/7 7/230/7 102/228/7
f 102/228/7 7/230/7 104/231/7
f 104/231/7 7/230/7 105/232/7
f 104/231/7 105/232/7 106/233/7
f 7/230/7 48/78/7 105/232/7
f 105/232/7 48/78/7 53/85/7
f 103/229/7 107/234/7 101/227/7
f 100/226/7 108/235/7 99/224/7
f 73/236/1 85/237/1 47/238/1
f 47/238/1 85/237/1 49/239/1
f 32/240/2 73/241/2 33/242/2
f 33/242/2 73/241/2 47/243/2
f 78/244/4 34/245/4 99/246/4
f 99/246/4 34/245/4 36/247/4
f 36/247/4 34/245/4 35/248/4
f 81/249/3 78/250/3 108/251/3
f 108/251/3 78/250/3 99/252/3
f 79/253/4 81/254/4 100/255/4
f 100/255/4 81/254/4 108/256/4
f 80/257/3 79/258/3 101/259/3
f 101/259/3 79/258/3 100/260/3
f 80/261/1 101/262/1 82/263/1
f 82/263/1 101/262/1 107/264/1
f 83/265/3 82/266/3 103/267/3
f 103/267/3 82/266/3 107/268/3
f 74/269/4 83/270/4 102/271/4
f 102/271/4 83/270/4 103/272/4
f 75/273/3 74/274/3 104/275/3
f 104/275/3 74/274/3 102/276/3
f 75/277/1 104/278/1 77/279/1
f 77/279/1 104/278/1 106/280/1
f 76/281/3 77/282/3 105/283/3
f 105/283/3 77/282/3 106/284/3
f 76/285/1 105/286/1 84/287/1
f 84/287/1 105/286/1 53/288/1
f 84/287/1 53/288/1 50/289/1
f 86/290/2 84/291/2 52/292/2
f 52/292/2 84/291/2 50/293/2
f 87/294/1 86/295/1 51/296/1
f 51/296/1 86/295/1 52/297/1
f 85/298/3 87/299/3 49/300/3
f 49/300/3 87/299/3 51/301/3
f 3/302/3 90/303/3 71/304/3
f 71/304/3 90/303/3 96/305/3
f 71/304/3 96/305/3 44/306/3
f 44/306/3 96/305/3 5/307/3
f 5/307/3 96/305/3 95/308/3
f 5/307/3 95/308/3 98/309/3
f 98/309/3 95/308/3 92/310/3
f 92/310/3 95/308/3 91/311/3
f 92/310/3 91/311/3 3/302/3
f 3/302/3 91/311/3 90/303/3
f 5/307/3 97/312/3 3/302/3
f 3/302/3 97/312/3 93/313/3
f 3/302/3 93/313/3 92/310/3
f 98/309/3 97/312/3 5/307/3
f 6/137/4 71/130/4 7/314/4
f 7/314/4 71/130/4 48/315/4
f 48/315/4 71/130/4 44/316/4
