# Blender v2.79 (sub 0) OBJ File: 'SR1.blend'
# www.blender.org
o Roof_Roof.001
v 20.000000 8.200001 -12.500000
v -11.021955 8.200001 -12.500000
v 20.000000 8.199999 12.500000
v -11.021955 8.199999 12.500000
v 20.000000 8.000001 -12.500000
v 20.000000 8.000000 12.500000
v -11.000000 8.000001 -12.500000
v -11.000000 8.000000 12.500000
v -20.000000 6.000000 -12.500000
v -20.000000 6.000000 12.500000
v -20.000000 6.204879 -12.500000
v -20.000000 6.204878 12.500000
vt 0.465124 0.799577
vt 0.465124 0.182843
vt 0.930249 0.799577
vt 0.930249 0.182843
vt 0.996188 1.000000
vt 0.996188 0.500000
vt 0.999909 1.000000
vt 0.999909 0.500000
vt 0.000000 0.616298
vt 0.000000 0.000000
vt 0.465124 0.616298
vt 0.465124 0.000000
vt 0.000000 0.799588
vt 0.465124 0.799588
vt 0.996188 0.500000
vt 0.996188 0.000000
vt 1.000000 0.500000
vt 1.000000 0.000000
vt 0.465124 0.000000
vt 0.930249 0.000000
vt 0.963650 0.801168
vt 0.959842 0.800984
vt 0.933984 0.619556
vt 0.930249 0.619815
vt 0.956124 0.000000
vt 0.959842 0.000179
vt 0.992472 0.801199
vt 0.963650 0.181534
vt 0.967386 0.181773
vt 0.992381 0.000205
vt 0.996188 0.800999
vn 0.0000 1.0000 0.0000
vn 1.0000 0.0000 0.0000
vn 0.0000 -1.0000 -0.0000
vn 0.2169 -0.9762 -0.0000
vn -1.0000 0.0000 0.0000
vn -0.2169 0.9762 0.0000
vn 0.0000 0.0000 -1.0000
vn 0.0000 0.0000 1.0000
s off
f 1/1/1 2/2/1 3/3/1
f 3/3/1 2/2/1 4/4/1
f 1/5/2 3/6/2 5/7/2
f 5/7/2 3/6/2 6/8/2
f 7/9/3 5/10/3 8/11/3
f 8/11/3 5/10/3 6/12/3
f 9/13/4 7/9/4 10/14/4
f 10/14/4 7/9/4 8/11/4
f 9/15/5 10/16/5 11/17/5
f 11/17/5 10/16/5 12/18/5
f 2/2/6 11/19/6 4/4/6
f 4/4/6 11/19/6 12/20/6
f 9/21/7 11/22/7 7/23/7
f 7/23/7 11/22/7 2/24/7
f 7/23/7 2/24/7 1/25/7
f 1/25/7 5/26/7 7/23/7
f 3/27/8 4/28/8 8/29/8
f 8/29/8 4/28/8 12/30/8
f 8/29/8 12/30/8 10/16/8
f 8/29/8 6/31/8 3/27/8
